<svg xmlns="http://www.w3.org/2000/svg" viewBox="0 0 48 48"><style>.f{fill:#333}</style><path class="f" d="M36.33 28.42c.11 1.12.22 2.24.32 3.36.42 4.9-1.64 9.07-6.02 11.34-2.05 1.06-4.43 1.92-6.55 2.54-.19.06-.52.03-.75-.04-6.5-1.92-12.76-5.21-12.49-13.13.04-1.17.34-2.67.52-4 .01-.09-.04-.17-.13-.19-3.43-.96-4.3-6.39-3.19-9.27.37-.96 1.05-1.55 2.04-1.77.05-.01.07-.04.07-.09-.32-9.59 5.4-15.58 15.2-14.79 7.53.6 11.86 5.74 12.06 13.17.02.77.03 1.31.03 1.61 0 .04.03.08.07.09 1.09.22 1.82.78 2.21 1.69 1.41 3.29.78 8.41-3.34 9.4-.05.01-.07.04-.06.09M20.31 4.42c-4.65 1.01-7.61 4.53-8.23 9.16-.16 1.2-.22 2.52-.18 3.96.02.71.03 1.46-.74 1.58-.45.07-.91-.39-1.25.13-1.23 1.9-.54 6.19 1.59 7.32.05.03.11 0 .12-.07l.21-2.45c0-.05.03-.09.08-.1.64-.21 1.05-.04 1.59.31.69.51 1.03 1.21 1.02 2.09-.15 1.99.58 3.45 2.19 4.38.08.05.13.02.16-.06l.15-.46c.41-1.3.55-2.7 2.15-3.06 1.56-.34 3.12-.67 4.67-.98 1.36.27 2.72.54 4.06.84 1.28.28 1.81.5 2.26 1.85.21.62.41 1.24.6 1.87.02.05.05.06.09.04 1.4-.77 2.15-1.94 2.25-3.53.03-.45-.05-1.1.08-1.59.35-1.28 1.33-1.84 2.63-1.8.05 0 .08.03.08.08l.22 2.62s.05.08.09.06c3.7-1.27 2.54-8.28.94-7.61-.92.39-1.45-.13-1.43-1.02.03-1.38 0-2.65-.11-3.82-.76-8.17-7.98-11.36-15.29-9.75m3.5 27.53h1.07s.09.02.12.05l1.07 1.07s.07.05.11.05c.95 0 2.25.23 2.27-1.16.01-.73.01-1.47 0-2.21 0-.05-.03-.08-.08-.08-1.7.01-3.19.24-4.51-1.15-.8.77-1.73 1.16-2.78 1.16-.61 0-1.22 0-1.84-.01-.05 0-.08.02-.08.08-.01.73-.01 1.45 0 2.18.02 1.45 1.25 1.15 2.23 1.22.05 0 .1-.01.14-.05l1.04-1.04s.08-.06.13-.06l1.11-.05Z"/><path class="f" d="M21.88 16.51s.05.03.04.06l-.21 1.62c0 .06-.04.07-.09.05-2.3-.93-4.23-1.76-6.45-.69-.05.02-.1 0-.13-.03l-.25-.34s-.03-.08.02-.11c2.2-1.57 4.66-1.16 7.07-.56Zm11.16.67-.27.35s-.07.05-.12.03c-.73-.34-1.48-.51-2.25-.51-1.27 0-2.92.72-4.21 1.2-.04.01-.08 0-.09-.05l-.31-1.56c-.01-.05.01-.09.06-.1 2.52-.66 4.95-.98 7.17.54.05.03.05.07.02.11Zm-13.21 3.07c0 .25-.51.45-1.14.45s-1.14-.2-1.14-.45.51-.45 1.14-.45 1.14.2 1.14.45Zm10.34 0c0 .25-.52.45-1.15.45s-1.15-.2-1.15-.45.52-.45 1.15-.45 1.15.2 1.15.45Z"/><path d="M20.31 4.42c0 2.82.01 5.63 0 8.42 0 .87-.21 1.48-.8 2.04-.08.08-.11.21-.06.31.02.04.06.07.13.1.04.02.1.03.16.03 1.32.01 2.39.51 3.23 1.51.03.03.07.05.11.05l.62-.03c.06 0 .09.02.09.08 0 1.26.01 2.51.01 3.75 0 .64.22 1.15.68 1.54.83.71.49 1.93-.53 2.05-.74.09-2.72-1.2-3.05-.12-.37.2-.34.72.1.76 1.03.1 1.76.59 2.76.68.07.16.09.35.06.56-1.55.31-3.11.64-4.67.98-1.6.35-1.74 1.75-2.15 3.06h-.05c-.05 0-.07-.03-.08-.07-.25-1.61-1.04-2.87-2.36-3.79.01-.88-.33-1.58-1.02-2.09-.05-1.41-.07-2.81-.05-4.21.02-1.05-.71-1.94-1.56-2.51-.05-1.44.01-2.76.18-3.96.63-4.64 3.58-8.16 8.23-9.16m1.58 12.08c-2.42-.59-4.87-1.01-7.07.56-.04.03-.05.07-.02.11l.25.34s.08.05.13.03c2.22-1.06 4.15-.23 6.45.69.05.02.08 0 .09-.05l.21-1.62s-.01-.06-.04-.06m-2.05 3.74c0-.25-.51-.45-1.14-.45s-1.14.2-1.14.45.51.45 1.14.45 1.14-.2 1.14-.45Zm4.04 8.3-.02 1.8c-.8 0-1.61-.02-2.41.03-.44.03-1.21-.56-1.35.06-.03.15.01.26.14.35.84.57 2.53.33 3.54.33l.06.87-1.11.05c-.05 0-.1.02-.13.06l-1.04 1.04s-.08.05-.14.05c-.98-.08-2.21.23-2.23-1.22-.01-.72-.01-1.45 0-2.18 0-.05.03-.08.08-.08.62 0 1.23.01 1.84.01 1.06 0 1.99-.38 2.78-1.16Z" style="fill:#efc8a5"/><path d="M23.83 26.18c.03-.21.01-.4-.06-.56 1.2-.02 1.91-.63 3-.71a.33.33 0 0 0 .3-.29c.07-.84-1.55-.23-1.89-.09-1.09.44-1.79.43-2.88-.11-.32-.16-.79-.24-1.39-.24.32-1.08 2.31.21 3.05.12 1.02-.13 1.35-1.35.53-2.05-.45-.39-.68-.9-.68-1.54 0-1.25 0-2.5-.01-3.75 0-.06-.03-.09-.09-.08l-.62.03s-.08-.02-.11-.05c-.84-1-1.92-1.5-3.23-1.51-.06 0-.11-.01-.16-.03a.29.29 0 0 1-.13-.1.274.274 0 0 1 .06-.31c.59-.57.8-1.18.8-2.04V4.45c7.31-1.61 14.53 1.58 15.29 9.75.11 1.17.15 2.44.11 3.82-.02.89.51 1.41 1.43 1.02 1.6-.68 2.76 6.33-.94 7.61-.05.01-.09-.01-.09-.06l-.22-2.62c0-.05-.03-.08-.08-.08-1.3-.04-2.28.52-2.63 1.8-.13.49-.05 1.15-.08 1.59-.11 1.58-.86 2.76-2.25 3.53-.05.02-.07.01-.09-.04-.2-.63-.4-1.26-.6-1.87-.45-1.34-.98-1.57-2.26-1.85-1.34-.29-2.7-.57-4.06-.84m8.95-8.65.27-.35s.03-.08-.02-.11c-2.21-1.52-4.65-1.19-7.17-.54-.05.01-.07.05-.06.1l.31 1.56s.05.06.09.05c1.29-.48 2.94-1.19 4.21-1.2.77 0 1.52.17 2.25.51.05.02.09.01.12-.03m-2.6 2.72c0-.25-.52-.45-1.15-.45s-1.15.2-1.15.45.52.45 1.15.45 1.15-.2 1.15-.45Zm-18.3-2.72c.85.57 1.57 1.46 1.56 2.51-.02 1.4 0 2.8.05 4.21-.55-.35-.96-.52-1.59-.31-.05.02-.08.05-.08.1l-.21 2.45c0 .06-.07.09-.12.07-2.13-1.12-2.82-5.42-1.59-7.32.34-.52.8-.06 1.25-.13.78-.12.76-.87.74-1.58Zm2.62 8.81c1.32.91 2.11 2.17 2.36 3.79 0 .05.03.07.08.07h.05l-.15.46c-.03.09-.08.11-.16.06-1.61-.94-2.34-2.4-2.19-4.38Zm9.34 2.16c1.31 1.39 2.81 1.16 4.51 1.15.05 0 .08.03.08.08v2.21c-.02 1.39-1.32 1.17-2.27 1.16a.16.16 0 0 1-.11-.05L25 32s-.07-.05-.12-.05h-1.07l-.06-.87c.28 0 4.54.25 3.97-.8-.2-.38-1.01 0-1.39.01-.83.03-1.66.04-2.49.02l.02-1.8Z" style="fill:#e6b790"/><path d="M20.91 24.18c.61 0 1.07.08 1.39.24 1.09.54 1.79.55 2.88.11.34-.14 1.95-.75 1.89.09-.01.16-.14.28-.3.29-1.09.07-1.81.69-3 .71-1.01-.09-1.74-.58-2.76-.68-.44-.04-.46-.56-.1-.76Zm2.92 6.14c.83.02 1.66.01 2.49-.02.37-.02 1.18-.39 1.39-.01.57 1.05-3.69.8-3.97.8-1.01 0-2.7.24-3.54-.33a.318.318 0 0 1-.14-.35c.14-.62.92-.03 1.35-.06.8-.05 1.61-.02 2.41-.03Z" style="fill:#c5906c"/></svg>